# xmcd CD database file
#
# Track frame offsets:
#	150
#	17468
#	34196
#	50978
#	72968
#	89208
#	108156
#	126613
#	133101
#
# Disc length: 2053 seconds
#
# Revision: 0
# Processed by: cddbd v1.5.1PL0 Copyright (c) Steve Scherf et al.
# Submitted via: CDex 1.51
#
DISCID=87080309
DTITLE=Mojo Stu - Real House Blues
DYEAR=2004
DGENRE=Blues
TTITLE0=Leave It Gone
TTITLE1=Got A Love
TTITLE2=My Mama She Don't Love Me
TTITLE3=Hootchie Mama
TTITLE4=Don't Worry
TTITLE5=Eldorado
TTITLE6=Lightning
TTITLE7=Lightning (Reprise)
TTITLE8=Hey Hey
EXTD=YEAR: 2004
EXTT0=
EXTT1=
EXTT2=
EXTT3=
EXTT4=
EXTT5=
EXTT6=
EXTT7=
EXTT8=
PLAYORDER=
